<svg xmlns="http://www.w3.org/2000/svg" xmlns:xlink="http://www.w3.org/1999/xlink" width="884.019" height="654.16" viewBox="0 0 884.019 654.16">
  <defs>
    <linearGradient id="linear-gradient" x1="0.5" y1="1" x2="0.5" gradientUnits="objectBoundingBox">
      <stop offset="0" stop-color="gray" stop-opacity="0.251"/>
      <stop offset="0.54" stop-color="gray" stop-opacity="0.122"/>
      <stop offset="1" stop-color="gray" stop-opacity="0.102"/>
    </linearGradient>
  </defs>
  <g id="Group_3" data-name="Group 3" transform="translate(-536 -134)">
    <g id="Group_2" data-name="Group 2" transform="translate(1210.365 518.635)">
      <g id="Group_1" data-name="Group 1" transform="translate(0)" opacity="0.1">
        <path id="Path_1" data-name="Path 1" d="M921.839,619.212s-63.108-8.195-16.043,93.945c0,0,42.891-18.38,44.6-59.837a32.988,32.988,0,0,0-27.662-33.979Z" transform="translate(-888.357 -540.39)" fill="#6c63ff"/>
        <path id="Path_2" data-name="Path 2" d="M926.981,619.06s14.286,56.952-16.921,94.106" transform="translate(-892.573 -540.391)" fill="none" stroke="#535461" stroke-miterlimit="10" stroke-width="1"/>
        <path id="Path_3" data-name="Path 3" d="M909,707.837s22.723-56,65.155-76.774a91.577,91.577,0,0,0,41.586-40.369,154.014,154.014,0,0,0,10.419-26.163" transform="translate(-892.367 -529.8)" fill="none" stroke="#535461" stroke-miterlimit="10" stroke-width="2"/>
        <path id="Path_4" data-name="Path 4" d="M1080.906,542.92c-4.424,5.56-27.316,13.7-27.316,13.7s2.756-24.173,7.179-29.693a12.892,12.892,0,1,1,20.144,16.019Z" transform="translate(-920.45 -521.428)" fill="#6c63ff"/>
        <path id="Path_5" data-name="Path 5" d="M1070.422,596.639c-6.736,2.264-30.362-3.368-30.362-3.368s15.431-18.758,22.167-21.023a12.892,12.892,0,1,1,8.195,24.391Z" transform="translate(-917.822 -531.112)" fill="#6c63ff"/>
        <path id="Path_6" data-name="Path 6" d="M1018.972,661.246c-6.954-1.442-24.512-18.235-24.512-18.235s22.787-8.4,29.749-6.962a12.892,12.892,0,0,1-5.237,25.189Z" transform="translate(-908.965 -543.658)" fill="#6c63ff"/>
        <path id="Path_7" data-name="Path 7" d="M967.313,701.039c-7.1-.25-27.243-13.827-27.243-13.827s21.047-12.151,28.146-11.893a12.892,12.892,0,0,1-.9,25.712Z" transform="translate(-898.401 -551.317)" fill="#6c63ff"/>
        <path id="Path_8" data-name="Path 8" d="M1012.7,575.295c.911,7.051,16.293,25.841,16.293,25.841s10.129-22.078,9.226-29.129a12.892,12.892,0,1,0-25.519,3.288Z" transform="translate(-912.461 -528.905)" fill="#6c63ff"/>
        <path id="Path_9" data-name="Path 9" d="M953.325,621.854C956.3,628.3,976.6,641.636,976.6,641.636s3.062-24.1.089-30.547a12.892,12.892,0,1,0-23.367,10.773Z" transform="translate(-900.673 -537.238)" fill="#6c63ff"/>
        <path id="Path_10" data-name="Path 10" d="M902.454,676.27c1.837,6.865,19.6,23.432,19.6,23.432s7.091-23.231,5.246-30.1a12.892,12.892,0,1,0-24.85,6.664Z" transform="translate(-890.961 -548.191)" fill="#6c63ff"/>
        <path id="Path_11" data-name="Path 11" d="M1080.906,542.92c-4.424,5.56-27.316,13.7-27.316,13.7s2.756-24.173,7.179-29.693a12.892,12.892,0,1,1,20.144,16.019Z" transform="translate(-920.45 -521.428)" opacity="0.25"/>
        <path id="Path_12" data-name="Path 12" d="M1070.422,596.639c-6.736,2.264-30.362-3.368-30.362-3.368s15.431-18.758,22.167-21.023a12.892,12.892,0,1,1,8.195,24.391Z" transform="translate(-917.822 -531.112)" opacity="0.25"/>
        <path id="Path_13" data-name="Path 13" d="M1018.972,661.246c-6.954-1.442-24.512-18.235-24.512-18.235s22.787-8.4,29.749-6.962a12.892,12.892,0,0,1-5.237,25.189Z" transform="translate(-908.965 -543.658)" opacity="0.25"/>
        <path id="Path_14" data-name="Path 14" d="M967.313,701.039c-7.1-.25-27.243-13.827-27.243-13.827s21.047-12.151,28.146-11.893a12.892,12.892,0,0,1-.9,25.712Z" transform="translate(-898.401 -551.317)" opacity="0.25"/>
        <path id="Path_15" data-name="Path 15" d="M1012.7,575.295c.911,7.051,16.293,25.841,16.293,25.841s10.129-22.078,9.226-29.129a12.892,12.892,0,1,0-25.519,3.288Z" transform="translate(-912.461 -528.905)" opacity="0.25"/>
        <path id="Path_16" data-name="Path 16" d="M953.325,621.854C956.3,628.3,976.6,641.636,976.6,641.636s3.062-24.1.089-30.547a12.892,12.892,0,1,0-23.367,10.773Z" transform="translate(-900.673 -537.238)" opacity="0.25"/>
        <path id="Path_17" data-name="Path 17" d="M902.454,676.27c1.837,6.865,19.6,23.432,19.6,23.432s7.091-23.231,5.246-30.1a12.892,12.892,0,1,0-24.85,6.664Z" transform="translate(-890.961 -548.191)" opacity="0.25"/>
        <path id="Path_18" data-name="Path 18" d="M946.56,739.455s22.723-56,65.155-76.774a91.577,91.577,0,0,0,41.562-40.377A154,154,0,0,0,1063.7,596.14" transform="translate(-899.662 -535.939)" fill="none" stroke="#535461" stroke-miterlimit="10" stroke-width="2"/>
        <path id="Path_19" data-name="Path 19" d="M1118.416,574.815c-4.424,5.56-27.316,13.7-27.316,13.7s2.756-24.173,7.179-29.693a12.892,12.892,0,0,1,20.144,16.019Z" transform="translate(-927.735 -527.862)" fill="#6c63ff"/>
        <path id="Path_20" data-name="Path 20" d="M1107.952,628.366c-6.736,2.264-30.362-3.368-30.362-3.368s15.431-18.758,22.167-21.023a12.892,12.892,0,0,1,8.195,24.391Z" transform="translate(-925.111 -537.377)" fill="#6c63ff"/>
        <path id="Path_21" data-name="Path 21" d="M1056.5,692.886c-6.954-1.442-24.512-18.235-24.512-18.235s22.787-8.4,29.749-6.962a12.892,12.892,0,0,1-5.238,25.189Z" transform="translate(-916.254 -549.804)" fill="#6c63ff"/>
        <path id="Path_22" data-name="Path 22" d="M1004.833,732.631c-7.1-.25-27.243-13.827-27.243-13.827s21.047-12.135,28.146-11.885a12.892,12.892,0,0,1-.9,25.712Z" transform="translate(-905.688 -557.454)" fill="#6c63ff"/>
        <path id="Path_23" data-name="Path 23" d="M1050.222,606.935c.911,7.051,16.293,25.841,16.293,25.841s10.129-22.078,9.226-29.129a12.892,12.892,0,1,0-25.519,3.288Z" transform="translate(-919.749 -535.05)" fill="#6c63ff"/>
        <path id="Path_24" data-name="Path 24" d="M991.022,653.777c2.973,6.446,23.279,19.782,23.279,19.782s3.062-24.1.089-30.547a12.892,12.892,0,0,0-23.368,10.773Z" transform="translate(-908.13 -543.731)" fill="#6c63ff"/>
        <path id="Path_25" data-name="Path 25" d="M940.09,708.288c1.837,6.865,19.6,23.432,19.6,23.432s7.091-23.23,5.246-30.1a12.892,12.892,0,0,0-24.85,6.664Z" transform="translate(-898.357 -554.73)" fill="#6c63ff"/>
      </g>
    </g>
    <path id="Path_26" data-name="Path 26" d="M63.3,474.07c13.988,59.789,43.6,111.471,90.4,136.522,97.257,52.061,316.6,25.213,480.3-5.64A374.856,374.856,0,0,0,847.15,483.119Z" transform="translate(482.254 6.405)" fill="#fff" opacity="0.1"/>
    <path id="Path_27" data-name="Path 27" d="M927.183,109.13h-89.82a7.764,7.764,0,0,1,0-15.527H852.89a7.764,7.764,0,1,1,0-15.527H841.8a7.764,7.764,0,1,1,0-15.527h46.88a124.05,124.05,0,0,0-36.566-10.08c-127.828-16.422-173.467-5.56-189.567,5.64-19.862,13.779-42.021,23.915-65.7,28.8C517.97,103.16,370.472,122.74,236.786,80.622c-66.444-20.95-115.83,14.439-145.426,73.551H942.774c-1.112-17.179-4.44-33.037-10.548-46.928A7.719,7.719,0,0,1,927.183,109.13Z" transform="translate(476.804 89.92)" fill="#fff" opacity="0.1"/>
    <path id="Path_28" data-name="Path 28" d="M53.374,319.2a395.683,395.683,0,0,0,3.489,104.316l788.6,28.839A370.657,370.657,0,0,0,900.252,368.8Zm311.9,74.413H349.747a7.764,7.764,0,1,1,0,15.527h-89.82a7.764,7.764,0,1,1,0-15.527h15.527a7.764,7.764,0,0,1,0-15.527H264.367a7.764,7.764,0,0,1,0-15.527h89.82a7.764,7.764,0,1,1,0,15.527h11.087a7.764,7.764,0,0,1,0,15.527Z" transform="translate(484.557 36.485)" fill="#fff" opacity="0.1"/>
    <path id="Path_29" data-name="Path 29" d="M935.558,181.38,74.6,202.33c-10.467,26.921-17.373,57.355-20.6,88.9H920.474a367.811,367.811,0,0,0,12.514-56.67C935.566,216.02,936.6,198.084,935.558,181.38Zm-706.77,68.628H213.261a7.764,7.764,0,0,1,0,15.527h-89.82a7.764,7.764,0,0,1,0-15.527h15.527a7.764,7.764,0,0,1,0-15.527H127.882a7.764,7.764,0,1,1,0-15.527H217.7a7.764,7.764,0,0,1,0,15.527h11.087a7.764,7.764,0,1,1,0,15.527Z" transform="translate(484.06 63.253)" fill="#fff" opacity="0.1"/>
    <path id="Path_30" data-name="Path 30" d="M835.919,702.454S800.014,505.522,731.547,473.565c-58.016-27.1-120.753-45.365-138.593-50.321a77.039,77.039,0,0,0-9.194-12c-24.383-25.454-39.032-24.979-41.4-24.665a123.966,123.966,0,0,1-2.417-15.31c-.073-.806-.145-1.555-.209-2.353l.21-.1q-.218-2.284-.387-4.714a121.348,121.348,0,0,0,27.227-19.83c.1.346.193.693.306,1.047q26.357-22.28,51.626-45.768c4.835-4.52,9.911-9.428,11.555-15.8a23.188,23.188,0,0,0,.6-6.7c.218-4.835-.927-9.774-1.12-14.673a16.8,16.8,0,0,1,.193-2.321c1.128-8.017,6.7-14.6,11.281-21.329a100.577,100.577,0,0,0,17.107-57.581,97.5,97.5,0,0,0-4.029-29.008c-3.57-11.942-11-24.488-23.367-27.1-4.786-1.007-9.758-.379-14.641-.693-20.217-1.289-35.349-17.727-51.473-29.773A135.862,135.862,0,0,0,497.478,68.43c-7.615-.806-15.479-.862-22.723,1.555-16.269,5.415-26.147,22.135-41.82,29.008-11.587,5.109-24.979,4.279-37.066,8.114-17.993,5.721-33.262,24.173-33.665,43.133V152.7c-.2,9.581,3.223,19.339,3.5,29.145q0,1.33.04,2.667c-.089,10.588-1.354,21.208-5.213,31.159-2.079,5.358-4.754,11.563-4.319,16.921a11.326,11.326,0,0,0,2.675,8.864l3.892-3.433a117.687,117.687,0,0,0,40.49,111.874q.226,3.618.435,7.752c.612,11.942,1.1,26.921.959,43.246l-38,34.93L268.968,480.14s-89.344,18.871-70.1,144.387l9.186,77.935H289.62l-.185.411H410.5l.073-.411H698.623l-.056.411h11.281v-.411ZM543.077,388.58a83.734,83.734,0,0,1,5.8,15.954,65.358,65.358,0,0,1-6.261-16.825l.121.218ZM404.628,404.7q0,2.3-.081,4.649l-.193.274a39.482,39.482,0,0,1,.274-4.964Z" transform="translate(456.451 85.287)" fill="url(#linear-gradient)"/>
    <path id="Path_31" data-name="Path 31" d="M620.422,474.535l-16.116,153.9-86.218,27.4s-112-20.95-82.995-81.383c20.636-42.988,20.064-119.811,18.017-160.583-.806-16.551-1.9-27.163-1.9-27.163S597.86,258.587,585.773,373.813c-2.337,22.312-2.474,39.757-1.176,53.391C590.036,483.963,620.422,474.535,620.422,474.535Z" transform="translate(410.974 35.214)" fill="#fdc2cc"/>
    <path id="Path_32" data-name="Path 32" d="M620.422,474.535l-16.116,153.9-86.218,27.4s-112-20.95-82.995-81.383c20.636-42.988,20.064-119.811,18.017-160.583-.806-16.551-1.9-27.163-1.9-27.163S597.86,258.587,585.773,373.813c-2.337,22.312-2.474,39.757-1.176,53.391C590.036,483.963,620.422,474.535,620.422,474.535Z" transform="translate(410.974 35.214)" opacity="0.03"/>
    <path id="Path_33" data-name="Path 33" d="M590.814,370.813c-2.337,22.312-2.474,39.757-1.176,53.391a116.894,116.894,0,0,1-131.486-13.336c-.806-16.551-1.9-27.163-1.9-27.163S602.9,255.587,590.814,370.813Z" transform="translate(405.933 35.797)" opacity="0.1"/>
    <circle id="Ellipse_1" data-name="Ellipse 1" cx="116.837" cy="116.837" r="116.837" transform="translate(822.7 235.793)" fill="#fdc2cc"/>
    <circle id="Ellipse_2" data-name="Ellipse 2" cx="116.837" cy="116.837" r="116.837" transform="translate(822.7 235.793)" opacity="0.03"/>
    <path id="Path_34" data-name="Path 34" d="M827.427,780.637H221.484l-8.864-76.549C194.088,580.8,280.306,562.272,280.306,562.272l94.276-43.512,37.469-35.051c-12.087,45.929,79.369,141.414,79.369,141.414h0a21.665,21.665,0,0,0,1.668-1.732c2.466-2.691,8.356-9.428,22.151-26.139,4.931-5.987,10.886-13.247,18.057-22.062,34.487-42.384,16.792-92.463,11.507-102.817l-.33-.645c-.2-.371-.354-.669-.475-.878a1.307,1.307,0,0,0-.121-.218,1.294,1.294,0,0,1-.089-.161L588.1,505.118s1.7.451,4.835,1.338c17.244,4.835,77.822,22.811,133.759,49.426C792.779,587.251,827.427,780.637,827.427,780.637Z" transform="translate(453.759 7.104)" fill="#6c63ff"/>
    <path id="Path_35" data-name="Path 35" d="M685.682,596.086c-7.252-7.252-56.4-16.116-56.4-16.116,1.612,19.339-58.016,49.152-58.016,49.152l4.432,151.486H547.1L542.27,644.433l13.7-19.339h0l1.668-1.732a265.916,265.916,0,0,0,22.151-26.139c4.931-5.987,10.886-13.247,18.057-22.062,34.487-42.384,16.792-92.463,11.507-102.817l-.33-.645c-.193-.379-.346-.669-.475-.878a1.312,1.312,0,0,0-.121-.218,1.287,1.287,0,0,1-.089-.161h0s14.5-3.223,40.289,24.173a75.532,75.532,0,0,1,8.864,11.813C678.438,540.045,692.072,602.476,685.682,596.086Z" transform="translate(389.226 7.132)" fill="#6c63ff"/>
    <path id="Path_36" data-name="Path 36" d="M685.682,596.086c-7.252-7.252-56.4-16.116-56.4-16.116,1.612,19.339-58.016,49.152-58.016,49.152l4.432,151.486H547.1L542.27,644.433l13.7-19.339h0l1.668-1.732a265.916,265.916,0,0,0,22.151-26.139c4.931-5.987,10.886-13.247,18.057-22.062,34.487-42.384,16.792-92.463,11.507-102.817l-.33-.645c-.193-.379-.346-.669-.475-.878a1.312,1.312,0,0,0-.121-.218,1.287,1.287,0,0,1-.089-.161h0s14.5-3.223,40.289,24.173a75.532,75.532,0,0,1,8.864,11.813C678.438,540.045,692.072,602.476,685.682,596.086Z" transform="translate(389.226 7.132)" opacity="0.1"/>
    <path id="Path_37" data-name="Path 37" d="M313.25,703.4s37.871,77.354,39.886,122.881" transform="translate(433.707 -38.137)" opacity="0.1"/>
    <path id="Path_38" data-name="Path 38" d="M771.178,714.31,760.3,792.873h10.878Z" transform="translate(388.336 -4.721)" opacity="0.1"/>
    <path id="Path_39" data-name="Path 39" d="M323.75,773.032l60.03-136.579s16.921-32.231,20.95-64.462S430.515,489,430.515,489s53.987-68.491,78.966-58.822S487.725,476.1,487.725,476.1s68.491,26.591,21.756,105.557-47.541,64.462-47.541,64.462l-22.965,126.91Z" transform="translate(431.668 15.112)" opacity="0.1"/>
    <path id="Path_40" data-name="Path 40" d="M321.75,773.028l60.03-136.579s16.921-32.231,20.95-64.462c2.562-20.491,12.288-48.475,19.032-66.146a101.416,101.416,0,0,1,19.113-31.425c17.453-19.532,49.152-51.03,66.605-44.261,24.979,9.669-21.756,45.929-21.756,45.929s68.491,26.591,21.756,105.557S459.94,646.1,459.94,646.1l-22.965,126.91Z" transform="translate(432.057 15.116)" fill="#fdc2cc"/>
    <circle id="Ellipse_3" data-name="Ellipse 3" cx="2.417" cy="2.417" r="2.417" transform="translate(972.977 284.543)" fill="#fff" opacity="0.15"/>
    <circle id="Ellipse_4" data-name="Ellipse 4" cx="2.417" cy="2.417" r="2.417" transform="translate(961.697 289.377)" fill="#fff" opacity="0.15"/>
    <path id="Path_41" data-name="Path 41" d="M440,123.4c11.66-3.771,24.6-2.957,35.784-7.969,15.124-6.785,24.657-23.206,40.353-28.524,6.994-2.369,14.584-2.28,21.925-1.523a129.786,129.786,0,0,1,64.994,25.68c15.56,11.837,30.16,27.977,49.668,29.242,4.714.306,9.508-.314,14.125.677,11.958,2.562,19.121,14.883,22.562,26.591a100.126,100.126,0,0,1-12.618,82.673c-4.416,6.607-9.8,13.078-10.886,20.95-1.064,7.719,2.224,15.721.306,23.279-1.612,6.261-6.446,11.079-11.152,15.519q-24.375,23.053-49.821,44.922c-8.815-28.009,4.117-58.169,2.1-87.459-.806-11.41-4.835-23.867-14.9-29.25-9.419-5.028-21.458-2.417-30.99-7.252-10.636-5.358-15-18.049-23.045-26.832-13.7-14.987-37.477-16.921-56.63-10.153s-34.809,20.692-49.958,34.27l-27.533,24.7c-5.375-6.059-1.3-15.358,1.612-22.932,4.335-11.353,5.286-23.593,5-35.647-.234-9.669-3.57-19.218-3.376-28.629C407.905,147.164,422.635,129.018,440,123.4Z" transform="translate(416.536 81.99)" opacity="0.1"/>
    <path id="Path_42" data-name="Path 42" d="M440,120.4c11.66-3.771,24.6-2.957,35.784-7.969,15.124-6.785,24.657-23.206,40.353-28.524,6.994-2.369,14.584-2.28,21.925-1.523a129.786,129.786,0,0,1,64.994,25.68c15.56,11.837,30.16,27.977,49.668,29.242,4.714.306,9.508-.314,14.125.677,11.958,2.562,19.121,14.883,22.562,26.591a100.125,100.125,0,0,1-12.618,82.673c-4.416,6.607-9.8,13.078-10.886,20.95-1.064,7.719,2.224,15.721.306,23.279-1.612,6.261-6.446,11.079-11.152,15.519q-24.375,23.053-49.821,44.922c-8.815-28.009,4.117-58.169,2.1-87.459-.806-11.41-4.835-23.867-14.9-29.25-9.419-5.028-21.458-2.417-30.99-7.252-10.636-5.358-15-18.049-23.045-26.832-13.7-14.987-37.477-16.921-56.63-10.153s-34.809,20.692-49.958,34.27l-27.533,24.7c-5.375-6.059-1.3-15.358,1.612-22.932,4.335-11.353,5.286-23.593,5-35.648-.234-9.669-3.57-19.218-3.376-28.629C407.905,144.164,422.635,126.018,440,120.4Z" transform="translate(416.536 82.572)" fill="#865a61"/>
  </g>
</svg>
