<svg xmlns="http://www.w3.org/2000/svg" width="587.152" height="588.909" viewBox="0 0 587.152 588.909">
  <g id="Group_6" data-name="Group 6" transform="translate(0 0)">
    <path id="Path_1" data-name="Path 1" d="M284.04,696.056l-5.171-20.395a264.847,264.847,0,0,0-28.1-10.081l-.653,9.478-2.647-10.442c-11.841-3.385-19.9-4.874-19.9-4.874s10.878,41.376,33.7,73.008l26.592,4.671L267.212,740.4a107.143,107.143,0,0,0,9.238,9.792c33.2,30.816,70.176,44.954,82.591,31.579s-4.434-49.2-37.633-80.011c-10.292-9.553-23.22-17.219-36.163-23.254Z" transform="translate(-227.576 -199.952)" fill="#f2f2f2"/>
    <path id="Path_2" data-name="Path 2" d="M351.12,661.519l6.116-20.131a264.814,264.814,0,0,0-18.84-23.153l-5.458,7.776,3.131-10.308c-8.388-9.015-14.514-14.453-14.514-14.453s-12.073,41.044-8.888,79.919l20.35,17.744-19.228-8.129a107.132,107.132,0,0,0,2.849,13.16c12.491,43.54,36.837,74.757,54.378,69.724s21.635-44.408,9.144-87.948c-3.872-13.5-10.978-26.743-18.937-38.6Z" transform="translate(-245.478 -187.568)" fill="#f2f2f2"/>
    <path id="Path_22" data-name="Path 22" d="M668.7,215.975h-3.226V127.608a51.146,51.146,0,0,0-51.146-51.146H427.108a51.146,51.146,0,0,0-51.146,51.146V612.4a51.146,51.146,0,0,0,51.146,51.146H614.331A51.146,51.146,0,0,0,665.476,612.4V278.876H668.7Z" transform="translate(-258.992 -76.461)" fill="#e6e6e6"/>
    <path id="Path_23" data-name="Path 23" d="M620.185,93.335H595.748a18.146,18.146,0,0,1-16.8,25H471.687a18.146,18.146,0,0,1-16.8-25H432.061a38.2,38.2,0,0,0-38.2,38.2V615.621a38.2,38.2,0,0,0,38.2,38.2H620.185a38.2,38.2,0,0,0,38.2-38.2h0V131.53a38.2,38.2,0,0,0-38.195-38.195Z" transform="translate(-262.782 -80.034)" fill="#fff"/>
    <path id="Path_6" data-name="Path 6" d="M526.058,332.787a19.265,19.265,0,0,1,9.644-16.693,19.274,19.274,0,1,0,0,33.382A19.261,19.261,0,0,1,526.058,332.787Z" transform="translate(-286.69 -126.648)" fill="#ccc"/>
    <path id="Path_7" data-name="Path 7" d="M556.8,332.787a19.264,19.264,0,0,1,9.644-16.693,19.274,19.274,0,1,0,0,33.382A19.261,19.261,0,0,1,556.8,332.787Z" transform="translate(-293.198 -126.648)" fill="#ccc"/>
    <circle id="Ellipse_1" data-name="Ellipse 1" cx="19.274" cy="19.274" r="19.274" transform="translate(268.004 186.864)" fill="#81105b"/>
    <path id="Path_8" data-name="Path 8" d="M601.619,381.995H489.289a4.038,4.038,0,0,1-4.034-4.034V265.631a4.038,4.038,0,0,1,4.034-4.034h112.33a4.038,4.038,0,0,1,4.034,4.034v112.33A4.038,4.038,0,0,1,601.619,381.995ZM489.289,263.211a2.422,2.422,0,0,0-2.42,2.42v112.33a2.422,2.422,0,0,0,2.42,2.42h112.33a2.423,2.423,0,0,0,2.42-2.42V265.631a2.422,2.422,0,0,0-2.42-2.42Z" transform="translate(-282.131 -115.658)" fill="#ccc"/>
    <rect id="Rectangle_1" data-name="Rectangle 1" width="172.281" height="1.614" transform="translate(172.289 352.443)" fill="#ccc"/>
    <circle id="Ellipse_2" data-name="Ellipse 2" cx="5.441" cy="5.441" r="5.441" transform="translate(172.289 331.488)" fill="#6c63ff"/>
    <rect id="Rectangle_2" data-name="Rectangle 2" width="172.281" height="1.614" transform="translate(172.289 406.847)" fill="#ccc"/>
    <circle id="Ellipse_3" data-name="Ellipse 3" cx="5.441" cy="5.441" r="5.441" transform="translate(172.289 385.892)" fill="#6c63ff"/>
    <path id="Path_56" data-name="Path 56" d="M645.115,664.141H590.669a3.551,3.551,0,0,1-3.547-3.547V641.511a3.551,3.551,0,0,1,3.547-3.547h54.445a3.551,3.551,0,0,1,3.547,3.547v19.083a3.551,3.551,0,0,1-3.548,3.547Z" transform="translate(-303.698 -195.34)" fill="#81105b"/>
    <circle id="Ellipse_7" data-name="Ellipse 7" cx="5.441" cy="5.441" r="5.441" transform="translate(190.036 331.488)" fill="#6c63ff"/>
    <circle id="Ellipse_8" data-name="Ellipse 8" cx="5.441" cy="5.441" r="5.441" transform="translate(207.784 331.488)" fill="#6c63ff"/>
    <circle id="Ellipse_9" data-name="Ellipse 9" cx="5.441" cy="5.441" r="5.441" transform="translate(190.036 385.892)" fill="#6c63ff"/>
    <circle id="Ellipse_10" data-name="Ellipse 10" cx="5.441" cy="5.441" r="5.441" transform="translate(207.784 385.892)" fill="#6c63ff"/>
    <path id="Path_88" data-name="Path 88" d="M817.044,823.023H251.067c-1.212,0-2.193-.43-2.193-.96s.981-.961,2.193-.961H817.044c1.211,0,2.193.43,2.193.961S818.254,823.023,817.044,823.023Z" transform="translate(-232.085 -234.114)" fill="#3f3d56"/>
    <path id="Path_57" data-name="Path 57" d="M789.2,559.512a7.964,7.964,0,0,1,1.112.621l35.356-15.09,1.262-9.314,14.127-.086L840.222,557l-46.666,12.341a8.384,8.384,0,0,1-.353.953,8.068,8.068,0,1,1-4-10.785Z" transform="translate(-344.073 -173.677)" fill="#ffb8b8"/>
    <path id="Path_58" data-name="Path 58" d="M633.15,725.009h-9.664l-4.6-37.276h14.263Z" transform="translate(-131.029 -145.604)" fill="#ffb8b8"/>
    <path id="Path_59" data-name="Path 59" d="M612.811,731.518h18.638v11.735H601.076A11.735,11.735,0,0,1,612.811,731.518Z" transform="translate(-127.258 -154.874)" fill="#2f2e41"/>
    <path id="Path_60" data-name="Path 60" d="M679.866,721.594l-9.618.948-8.23-36.646,14.195-1.4Z" transform="translate(-140.16 -144.919)" fill="#ffb8b8"/>
    <path id="Path_61" data-name="Path 61" d="M11.735,0H30.373V11.735H0A11.735,11.735,0,0,1,11.735,0Z" transform="translate(511.266 576.7) rotate(-5.625)" fill="#2f2e41"/>
    <circle id="Ellipse_6" data-name="Ellipse 6" cx="19.361" cy="19.361" r="19.361" transform="translate(485.45 283.792)" fill="#ffb8b8"/>
    <path id="Path_62" data-name="Path 62" d="M842.778,765.324a3.524,3.524,0,0,1-3.48-2.914c-5-27.768-21.353-118.562-21.744-121.077a1.122,1.122,0,0,1-.012-.175v-6.77a1.174,1.174,0,0,1,.22-.687l2.16-3.025a1.166,1.166,0,0,1,.9-.493c12.315-.577,52.645-2.269,54.593.165h0c1.957,2.446,1.266,9.859,1.107,11.32l.008.152L894.65,757.693a3.557,3.557,0,0,1-2.928,4.048L880.4,763.605a3.564,3.564,0,0,1-3.961-2.438c-3.5-11.184-15.237-48.809-19.3-63.367a.394.394,0,0,0-.773.109c.2,13.878.694,49.286.864,61.516l.018,1.317a3.562,3.562,0,0,1-3.226,3.576l-10.913.992C843,765.32,842.887,765.324,842.778,765.324Z" transform="translate(-352.481 -193.458)"/>
    <path id="Path_99" data-name="Path 99" d="M845.179,494.77c-3.379,2.009-5.4,5.7-6.561,9.456a89.614,89.614,0,0,0-3.85,21.409l-1.226,21.757-15.179,57.679c13.155,11.131,20.744,8.6,38.453-.5s19.733,3.036,19.733,3.036l3.541-49.077,5.06-53.629a23.78,23.78,0,0,0-3.832-3.685,39.145,39.145,0,0,0-33.457-7.091Z" transform="translate(-352.656 -164.643)" fill="#63a7ff"/>
    <path id="Path_63" data-name="Path 63" d="M843.137,573.338a8.3,8.3,0,0,1,1.183.555l34.959-17.5.58-9.479,14.421-.994.773,21.609-46.719,15.449a8.274,8.274,0,1,1-5.2-9.642Z" transform="translate(-355.543 -175.854)" fill="#ffb8b8"/>
    <path id="Path_101" data-name="Path 101" d="M897.8,508.13c8.6,3.036,10.116,35.925,10.116,35.925-10.119-5.566-22.262,3.542-22.262,3.542s-2.53-8.6-5.566-19.732a19.336,19.336,0,0,1,4.047-18.214S889.2,505.093,897.8,508.13Z" transform="translate(-365.558 -167.631)" fill="#63a7ff" stroke="#000" stroke-width="1"/>
    <path id="Path_102" data-name="Path 102" d="M880.13,458.9c-2.412-1.93-5.7,1.578-5.7,1.578l-1.93-17.369s-12.062,1.445-19.781-.482-8.925,7-8.925,7a61.943,61.943,0,0,1-.241-10.855c.482-4.342,6.754-8.684,17.851-11.579s16.886,9.649,16.886,9.649C886.006,440.695,882.543,460.827,880.13,458.9Z" transform="translate(-357.96 -150.624)" fill="#2f2e41"/>
  </g>
</svg>
