<svg xmlns="http://www.w3.org/2000/svg" xmlns:xlink="http://www.w3.org/1999/xlink" width="738.737" height="658.461" viewBox="0 0 738.737 658.461">
  <defs>
    <linearGradient id="linear-gradient" x1="0.5" y1="1" x2="0.5" gradientUnits="objectBoundingBox">
      <stop offset="0" stop-color="gray" stop-opacity="0.251"/>
      <stop offset="0.54" stop-color="gray" stop-opacity="0.122"/>
      <stop offset="1" stop-color="gray" stop-opacity="0.102"/>
    </linearGradient>
    <linearGradient id="linear-gradient-2" x1="0.5" y1="1" x2="0.5" y2="0" xlink:href="#linear-gradient"/>
  </defs>
  <g id="Group_2" data-name="Group 2" transform="translate(-528 -211)">
    <path id="Path_1" data-name="Path 1" d="M506.4,473.94l-.59-.14V451.2a120.23,120.23,0,0,0,89.79-97.09h.29c5.77,0,10.44-8.77,10.44-19.58,0-6.71-1.8-12.62-4.54-16.15q.62-6.2.63-12.57a125,125,0,0,0-38.62-90.49,80.539,80.539,0,0,0-8.87-23.81c-8.9-15.68-23.71-32-17.67-49l-39.1,4-.36-25.76c-12.2,2.19-17.31,16.33-24.55,26.4-17.41,24.22-52.35,27.59-75.46,46.45-7.85,6.41-25.51,25.9-22.19,38.68a125.367,125.367,0,0,0-23.21,86.1c-2.74,3.53-4.54,9.44-4.54,16.15,0,10.82,4.68,19.58,10.44,19.58h.29a120.23,120.23,0,0,0,89.79,97.09v22.6l-.59.14C434.32,472.37,298.48,462,328.27,685.4l18.27,67.36,4.07-.16A28.72,28.72,0,0,0,407,757.71c25.87-.09,55.09-.17,70-.17s44.18.09,70,.17a28.72,28.72,0,0,0,56.44-5.11l4.07.16,18.27-67.36C655.71,462,519.86,472.37,506.4,473.94Z" transform="translate(360.4 90.25)" fill="url(#linear-gradient)"/>
    <rect id="Rectangle_2" data-name="Rectangle 2" width="645.61" height="21.88" transform="translate(528 836.19)" fill="#e0e0e0"/>
    <rect id="Rectangle_3" data-name="Rectangle 3" width="590.89" height="8.95" transform="translate(555.36 858.08)" fill="#e0e0e0"/>
    <rect id="Rectangle_4" data-name="Rectangle 4" width="590.89" height="2.98" transform="translate(555.36 858.08)" opacity="0.1"/>
    <path id="Path_2" data-name="Path 2" d="M361,747.61s86.63-.34,116.09-.34,116.09.34,116.09.34V735H361Z" transform="translate(360.4 90.25)" opacity="0.1"/>
    <path id="Path_3" data-name="Path 3" d="M593.19,745.08s-86.63-.34-116.09-.34-116.09.34-116.09.34V585.74A116.09,116.09,0,0,1,477.09,469.65h0a116.092,116.092,0,0,1,116.1,116.1Z" transform="translate(360.4 90.25)" fill="#6c63ff"/>
    <path id="Path_4" data-name="Path 4" d="M298.5,290.83h22a16.76,16.76,0,0,1,16.76,16.76v46.33a27.76,27.76,0,0,1-27.76,27.76h0a27.76,27.76,0,0,1-27.76-27.76V307.59A16.76,16.76,0,0,1,298.5,290.83Z" transform="translate(528 211.03)" fill="#fdb797"/>
    <path id="Path_5" data-name="Path 5" d="M449.33,453.67a116.17,116.17,0,0,0,55.52,0V414.13H449.33Z" transform="translate(360.4 90.25)" opacity="0.1"/>
    <circle id="Ellipse_4" data-name="Ellipse 4" cx="121.14" cy="121.14" r="121.14" transform="translate(716.36 279.77)" fill="#333"/>
    <circle id="Ellipse_5" data-name="Ellipse 5" cx="116.09" cy="116.09" r="116.09" transform="translate(721.41 312.58)" fill="#fdb797"/>
    <path id="Path_6" data-name="Path 6" d="M400.44,202.19c22.33-18.23,56.11-21.48,72.94-44.9,7-9.73,11.93-23.4,23.73-25.52l.35,24.9,37.79-3.88c-5.83,16.42,8.48,32.23,17.08,47.38a77.93,77.93,0,0,1,10.09,36.68c-13.12,7.88-29.39-.72-44-5.31-14.2-4.46-29.29-4.92-44.17-5.34-7.63-.22-15.35-.42-22.8,1.25-6.53,1.47-12.64,4.34-18.82,6.93-10.05,4.21-41.79,20.09-51.13,9.85C370.92,232.62,391.82,209.23,400.44,202.19Z" transform="translate(360.4 90.25)" fill="#333"/>
    <path id="Path_7" data-name="Path 7" d="M406.75,280.2c6.16,3.73,13.4,5.2,20.53,6.18a180.86,180.86,0,0,0,88.11-9.9c4.6,11.66,15.83,19.67,27.77,23.48s24.69,4,37.22,4.15c2.76,0,5.72,0,8-1.53,5.58-3.77,2.88-12.4-.37-18.3L571.84,255c-4.78-8.66-9.7-17.5-17.1-24.06-9.28-8.21-21.6-12.06-33.75-14.49a190.34,190.34,0,0,0-86.64,2.89C404.13,227.47,365.31,255.12,406.75,280.2Z" transform="translate(360.4 90.25)" opacity="0.1"/>
    <path id="Path_8" data-name="Path 8" d="M406.75,277.68c6.16,3.73,13.4,5.2,20.53,6.18a180.86,180.86,0,0,0,88.11-9.9c4.6,11.66,15.83,19.67,27.77,23.48s24.69,4,37.22,4.15c2.76,0,5.72,0,8-1.53,5.58-3.77,2.88-12.4-.37-18.3l-16.17-29.32c-4.78-8.66-9.7-17.5-17.1-24.06-9.28-8.21-21.6-12.06-33.75-14.49a190.34,190.34,0,0,0-86.64,2.89C404.13,224.94,365.31,252.59,406.75,277.68Z" transform="translate(360.4 90.25)" fill="#333"/>
    <ellipse id="Ellipse_6" data-name="Ellipse 6" cx="10.1" cy="18.93" rx="10.1" ry="18.93" transform="translate(942.23 409.74)" fill="#fdb797"/>
    <ellipse id="Ellipse_7" data-name="Ellipse 7" cx="10.1" cy="18.93" rx="10.1" ry="18.93" transform="translate(712.57 409.74)" fill="#fdb797"/>
    <path id="Path_9" data-name="Path 9" d="M504.39,473.27S651.23,450.4,620.95,677.54l-17.66,65.11-50.48-2s32.81-75.71,12.62-126.19S504.39,473.27,504.39,473.27Z" transform="translate(360.4 90.25)" fill="#6c63ff"/>
    <path id="Path_10" data-name="Path 10" d="M449.8,473.27S303,450.4,333.24,677.54l17.66,65.11,50.48-2s-32.81-75.71-12.62-126.19S449.8,473.27,449.8,473.27Z" transform="translate(360.4 90.25)" fill="#6c63ff"/>
    <path id="Path_11" data-name="Path 11" d="M386.24,573.36s-10.1,78,7.57,100.71" transform="translate(360.4 90.25)" opacity="0.1"/>
    <path id="Path_12" data-name="Path 12" d="M567.95,575.36s10.1,76-7.57,98.71" transform="translate(360.4 90.25)" opacity="0.1"/>
    <circle id="Ellipse_8" data-name="Ellipse 8" cx="27.76" cy="27.76" r="27.76" transform="translate(904.32 802.95)" fill="#fdb797"/>
    <circle id="Ellipse_9" data-name="Ellipse 9" cx="27.76" cy="27.76" r="27.76" transform="translate(715.15 802.95)" fill="#fdb797"/>
    <rect id="Rectangle_5" data-name="Rectangle 5" width="182.77" height="162" rx="21.34" transform="translate(746.04 672.03)" fill="url(#linear-gradient-2)"/>
    <rect id="Rectangle_6" data-name="Rectangle 6" width="176" height="156" rx="21.34" transform="translate(749.42 675.03)" fill="#e0e0e0"/>
    <path id="Icon_material-web" data-name="Icon material-web" d="M169.926,6H21.547A18.523,18.523,0,0,0,3.093,24.547L3,135.832a18.6,18.6,0,0,0,18.547,18.547H169.926a18.6,18.6,0,0,0,18.547-18.547V24.547A18.6,18.6,0,0,0,169.926,6ZM123.558,135.832H21.547V98.737H123.558Zm0-46.368H21.547V52.368H123.558Zm46.368,46.368H132.832V52.368h37.095Z" transform="translate(1078.263 594.81)"/>
    <path id="Icon_awesome-mobile" data-name="Icon awesome-mobile" d="M101.933,0H17.988A17.993,17.993,0,0,0,0,17.988v155.9a17.993,17.993,0,0,0,17.988,17.988h83.945a17.993,17.993,0,0,0,17.988-17.988V17.988A17.993,17.993,0,0,0,101.933,0ZM59.961,179.882A11.992,11.992,0,1,1,71.953,167.89,11.979,11.979,0,0,1,59.961,179.882Z" transform="translate(1064.289 289.063)"/>
    <path id="Icon_ionic-ios-globe" data-name="Icon ionic-ios-globe" d="M54.545,3.375h-.172a51.17,51.17,0,0,0,.025,102.34h.172a51.17,51.17,0,1,0-.025-102.34ZM98.876,51.1H79.786a96.879,96.879,0,0,0-2.411-18.746A74.944,74.944,0,0,0,89.6,27.189,44.074,44.074,0,0,1,98.876,51.1ZM51.1,51.1H35.9a87.442,87.442,0,0,1,2.165-17A74.846,74.846,0,0,0,51.1,35.848Zm0,6.888V73.217a75.164,75.164,0,0,0-13.039,1.747A87.432,87.432,0,0,1,35.9,57.989Zm6.888,0H73.07A86.929,86.929,0,0,1,70.9,74.939a73.432,73.432,0,0,0-12.916-1.722Zm0-6.888V35.848A75.165,75.165,0,0,0,70.9,34.126,87.186,87.186,0,0,1,73.07,51.1ZM84.9,22.1a68.343,68.343,0,0,1-9.348,3.813A50.8,50.8,0,0,0,69.035,12.5,44.517,44.517,0,0,1,84.9,22.1ZM69.06,27.681a69.236,69.236,0,0,1-11.07,1.476V11.1C62.171,13.363,66.255,19.439,69.06,27.681ZM51.1,11V29.132a68.041,68.041,0,0,1-11.193-1.5C42.761,19.316,46.894,13.24,51.1,11ZM39.883,12.576a51.2,51.2,0,0,0-6.47,13.309A69.881,69.881,0,0,1,24.187,22.1,43.851,43.851,0,0,1,39.883,12.576ZM19.489,27.213a73.459,73.459,0,0,0,12.1,5.117,92.976,92.976,0,0,0-2.411,18.746H10.239A43.848,43.848,0,0,1,19.489,27.213ZM10.214,57.989H29.157a96.631,96.631,0,0,0,2.411,18.746,77.941,77.941,0,0,0-12.1,5.117A44.081,44.081,0,0,1,10.214,57.989Zm13.949,29a68.849,68.849,0,0,1,9.25-3.789,51.378,51.378,0,0,0,6.47,13.334A44.943,44.943,0,0,1,24.163,86.994Zm15.745-5.56a68.4,68.4,0,0,1,11.193-1.5V98.089C46.87,95.85,42.761,89.749,39.908,81.434ZM57.989,97.991V79.909a69.236,69.236,0,0,1,11.07,1.476C66.255,89.651,62.171,95.727,57.989,97.991Zm11.07-1.4a50.8,50.8,0,0,0,6.519-13.408,67.218,67.218,0,0,1,9.348,3.838A45.028,45.028,0,0,1,69.06,96.588ZM89.6,81.877a74.943,74.943,0,0,0-12.227-5.166,96.375,96.375,0,0,0,2.411-18.721h19.09A43.881,43.881,0,0,1,89.6,81.877Z" transform="translate(783.071 703.08)"/>
  </g>
</svg>
